<?xml version="1.0" encoding="UTF-8"?>
<svg width="1200pt" height="1200pt" fill="#0d4fe8" version="1.1" viewBox="0 0 1200 1200" xmlns="http://www.w3.org/2000/svg">
 <g>
  <path d="m542.4 1015.2 42 18c3.6016 1.1992 6 2.3984 9.6016 2.3984s6-1.1992 9.6016-2.3984l48-20.398c171.6-72 282-237.6 282-423.6v-232.8c0-8.3984-4.8008-16.801-13.199-21.602l-313.2-166.8c-7.1992-3.6016-15.602-3.6016-22.801 0l-306 168c-7.1992 4.8008-12 12-12 21.602v237.6c0 181.2 108 346.8 276 420zm-228-644.4 282-154.8 289.2 154.8v218.4c0 166.8-99.602 315.6-252 379.2l-38.398 16.801-32.398-14.398c-150-64.801-247.2-213.6-247.2-376.8v-223.2z"/>
  <path d="m548.4 723.6 18-15.602 210-170.4-30-37.203-192 156-82.797-97.199-37.203 31.199 98.402 115.2z"/>
 </g>
</svg>
